<svg xmlns="http://www.w3.org/2000/svg" width="920" height="330" font-family="system-ui, -apple-system, 'Segoe UI', sans-serif">
  <text x="60" y="18" font-size="14" font-weight="600" fill="#3d3d39">Year-on-year change in median sale price</text>
  <text x="60" y="30" font-size="11" fill="#6b6a63">All-Dublin median, full-market-price sales.</text>
  <line x1="60" y1="34" x2="60" y2="296" stroke="#3d3d39" stroke-width="1"/>
  <line x1="60" y1="296" x2="904" y2="296" stroke="#3d3d39" stroke-width="1"/>
  <line x1="60" y1="242.39964209879284" x2="904" y2="242.39964209879284" stroke="#e6e6e3"/>
      <text x="52" y="246.39964209879284" text-anchor="end" fill="#6b6a63" font-size="11">-10%</text>
    <line x1="60" y1="158.92647326538417" x2="904" y2="158.92647326538417" stroke="#e6e6e3"/>
      <text x="52" y="162.92647326538417" text-anchor="end" fill="#6b6a63" font-size="11">+0%</text>
    <line x1="60" y1="75.45330443197554" x2="904" y2="75.45330443197554" stroke="#e6e6e3"/>
      <text x="52" y="79.45330443197554" text-anchor="end" fill="#6b6a63" font-size="11">+10%</text>
  <polyline points="60.0,237.8 116.3,283.5 172.5,106.8 228.8,39.9 285.1,109.3 341.3,65.3 397.6,95.5 453.9,120.6 510.1,157.2 566.4,110.7 622.7,112.1 678.9,107.3 735.2,129.4 791.5,105.6 847.7,103.4 904.0,145.5" fill="none" stroke="#3987e5" stroke-width="2" stroke-linejoin="round" stroke-linecap="round"/>
  <circle cx="60.0" cy="237.8" r="2.6" fill="#3987e5"/>
    
    <circle cx="172.5" cy="106.8" r="2.6" fill="#3987e5"/>
    
    <circle cx="285.1" cy="109.3" r="2.6" fill="#3987e5"/>
    
    <circle cx="397.6" cy="95.5" r="2.6" fill="#3987e5"/>
    
    <circle cx="510.1" cy="157.2" r="2.6" fill="#3987e5"/>
    
    <circle cx="622.7" cy="112.1" r="2.6" fill="#3987e5"/>
    
    <circle cx="735.2" cy="129.4" r="2.6" fill="#3987e5"/>
    
    <circle cx="847.7" cy="103.4" r="2.6" fill="#3987e5"/>
    
  <text x="60" y="318" text-anchor="middle" fill="#6b6a63" font-size="10">2011</text>
    
    <text x="172.53333333333333" y="318" text-anchor="middle" fill="#6b6a63" font-size="10">2013</text>
    
    <text x="285.06666666666666" y="318" text-anchor="middle" fill="#6b6a63" font-size="10">2015</text>
    
    <text x="397.6" y="318" text-anchor="middle" fill="#6b6a63" font-size="10">2017</text>
    
    <text x="510.1333333333333" y="318" text-anchor="middle" fill="#6b6a63" font-size="10">2019</text>
    
    <text x="622.6666666666666" y="318" text-anchor="middle" fill="#6b6a63" font-size="10">2021</text>
    
    <text x="735.2" y="318" text-anchor="middle" fill="#6b6a63" font-size="10">2023</text>
    
    <text x="847.7333333333333" y="318" text-anchor="middle" fill="#6b6a63" font-size="10">2025</text>
    <text x="904" y="318" text-anchor="middle" fill="#6b6a63" font-size="10">2026</text>
</svg>